name Walk3.mot
datacolumns 19
datarows 25
range 1.28000000 1.40000000
endheader

                time	   L_ground_force_vx	   L_ground_force_vy	   L_ground_force_vz	   L_ground_force_px	   L_ground_force_py	   L_ground_force_pz	   R_ground_force_vx	   R_ground_force_vy	   R_ground_force_vz	   R_ground_force_px	   R_ground_force_py	   R_ground_force_pz	   L_ground_torque_x	   L_ground_torque_y	   L_ground_torque_z	   R_ground_torque_x	   R_ground_torque_y	   R_ground_torque_z	
          1.28000000	         -2.81898479	          7.02941170	          0.63249787	         -0.17504265	          0.00000000	         -0.00341914	          0.00000000	         -0.00000000	          0.00000000	         -0.00000000	          0.00000000	         -0.00000000	          0.00000000	         -0.00564013	          0.00000000	          0.00000000	          0.00000000	          0.00000000	
          1.28500000	        -13.87927189	         74.52369716	         -0.12972266	         -0.40109758	          0.00000000	         -0.00718730	          0.00000000	         -0.00000000	         -0.00000000	         -0.00000000	          0.00000000	         -0.00000000	          0.00000000	          0.06568974	          0.00000000	          0.00000000	          0.00000000	          0.00000000	
          1.29000000	        -25.91977995	        186.94350426	         -5.43867634	         -0.47889761	          0.00000000	         -0.00825129	         -0.00000000	         -0.00000000	         -0.00000000	          0.00000000	          0.00000000	          0.00000000	          0.00000000	          0.17315421	          0.00000000	          0.00000000	         -0.00000000	          0.00000000	
          1.29500000	        -30.22136760	        256.93499901	        -15.03372230	         -0.47481924	          0.00000000	         -0.00793607	         -0.00000000	          0.00000000	         -0.00000000	          0.00000000	          0.00000000	          0.00000000	          0.00000000	          0.19607843	          0.00000000	          0.00000000	         -0.00000000	          0.00000000	
          1.30000000	        -30.90025798	        263.31874586	        -22.49963882	         -0.46350627	          0.00000000	         -0.00765116	         -0.00000000	          0.00000000	          0.00000000	          0.00000000	          0.00000000	          0.00000000	          0.00000000	          0.18642913	          0.00000000	          0.00000000	         -0.00000000	          0.00000000	
          1.30500000	        -32.94727448	        265.83225625	        -24.58665007	         -0.45935794	          0.00000000	         -0.00770362	          0.00000000	          0.00000000	          0.00000000	         -0.00000000	          0.00000000	         -0.00000000	          0.00000000	          0.22522813	          0.00000000	          0.00000000	          0.00000000	          0.00000000	
          1.31000000	        -37.02500232	        286.44254436	        -23.52832855	         -0.45799792	          0.00000000	         -0.00843801	          0.00000000	         -0.00000000	          0.00000000	         -0.00000000	          0.00000000	         -0.00000000	          0.00000000	          0.29959018	          0.00000000	          0.00000000	          0.00000000	          0.00000000	
          1.31500000	        -42.53854922	        307.06620312	        -21.15924712	         -0.45583093	          0.00000000	         -0.00986693	          0.00000000	         -0.00000000	         -0.00000000	         -0.00000000	          0.00000000	         -0.00000000	          0.00000000	          0.42913642	          0.00000000	          0.00000000	          0.00000000	          0.00000000	
          1.32000000	        -48.12032103	        321.85783036	        -16.62253450	         -0.45185957	          0.00000000	         -0.01195502	         -0.00000000	          0.00000000	         -0.00000000	          0.00000000	          0.00000000	          0.00000000	          0.00000000	          0.54502186	          0.00000000	          0.00000000	         -0.00000000	          0.00000000	
          1.32500000	        -53.08155435	        337.54829775	         -9.35337627	         -0.44726327	          0.00000000	         -0.01468605	         -0.00000000	          0.00000000	         -0.00000000	          0.00000000	          0.00000000	          0.00000000	          0.00000000	          0.60960877	          0.00000000	          0.00000000	         -0.00000000	          0.00000000	
          1.33000000	        -58.09922555	        354.95429525	         -2.47787873	         -0.44320232	          0.00000000	         -0.01699938	         -0.00000000	          0.00000000	          0.00000000	         -0.00000000	          0.00000000	         -0.00000000	          0.00000000	          0.74851223	          0.00000000	          0.00000000	          0.00000000	          0.00000000	
          1.33500000	        -62.76633888	        370.30319872	          0.78707269	         -0.43977040	          0.00000000	         -0.01833204	          0.00000000	         -0.00000000	          0.00000000	         -0.00000000	          0.00000000	         -0.00000000	          0.00000000	          0.96319225	          0.00000000	          0.00000000	          0.00000000	          0.00000000	
          1.34000000	        -65.95294616	        382.28201362	          1.76744395	         -0.43672692	          0.00000000	         -0.01905054	          0.00000000	         -0.00000000	         -0.00000000	         -0.00000000	          0.00000000	         -0.00000000	          0.00000000	          1.14657939	          0.00000000	          0.00000000	          0.00000000	          0.00000000	
          1.34500000	        -68.33914163	        395.07232099	          3.51982883	         -0.43384611	          0.00000000	         -0.01993441	          0.00000000	         -0.00000000	         -0.00000000	          0.00000000	          0.00000000	          0.00000000	          0.00000000	          1.21995009	          0.00000000	          0.00000000	         -0.00000000	          0.00000000	
          1.35000000	        -71.48928580	        412.16724954	          7.23363920	         -0.43087193	          0.00000000	         -0.02101566	         -0.00000000	          0.00000000	         -0.00000000	          0.00000000	          0.00000000	          0.00000000	          0.00000000	          1.20302741	          0.00000000	          0.00000000	         -0.00000000	          0.00000000	
          1.35500000	        -75.97624721	        432.55674948	         11.96327100	         -0.42787616	          0.00000000	         -0.02218743	         -0.00000000	          0.00000000	          0.00000000	          0.00000000	          0.00000000	          0.00000000	          0.00000000	          1.19246603	          0.00000000	          0.00000000	         -0.00000000	          0.00000000	
          1.36000000	        -81.40405508	        454.61030363	         16.18704655	         -0.42503440	          0.00000000	         -0.02311415	          0.00000000	          0.00000000	          0.00000000	         -0.00000000	          0.00000000	         -0.00000000	          0.00000000	          1.30154225	          0.00000000	          0.00000000	          0.00000000	          0.00000000	
          1.36500000	        -86.79109512	        477.01635264	         19.06498084	         -0.42269053	          0.00000000	         -0.02371895	          0.00000000	         -0.00000000	          0.00000000	         -0.00000000	          0.00000000	         -0.00000000	          0.00000000	          1.47185742	          0.00000000	          0.00000000	          0.00000000	          0.00000000	
          1.37000000	        -90.98024398	        498.58145877	         20.46555789	         -0.42103606	          0.00000000	         -0.02417506	          0.00000000	         -0.00000000	         -0.00000000	         -0.00000000	          0.00000000	         -0.00000000	          0.00000000	          1.60037306	          0.00000000	          0.00000000	          0.00000000	          0.00000000	
          1.37500000	        -93.29191238	        519.32887394	         20.80682487	         -0.41972589	          0.00000000	         -0.02452446	         -0.00000000	          0.00000000	         -0.00000000	          0.00000000	          0.00000000	          0.00000000	          0.00000000	          1.71914819	          0.00000000	          0.00000000	         -0.00000000	          0.00000000	
          1.38000000	        -93.81650456	        539.73750564	         20.99690204	         -0.41856996	          0.00000000	         -0.02467118	         -0.00000000	          0.00000000	         -0.00000000	          0.00000000	          0.00000000	          0.00000000	          0.00000000	          1.83938376	          0.00000000	          0.00000000	         -0.00000000	          0.00000000	
          1.38500000	        -93.50705448	        559.51625212	         21.75666470	         -0.41772444	          0.00000000	         -0.02479896	         -0.00000000	          0.00000000	          0.00000000	          0.00000000	          0.00000000	          0.00000000	          0.00000000	          1.94695530	          0.00000000	          0.00000000	         -0.00000000	          0.00000000	
          1.39000000	        -93.29372828	        578.01085228	         23.01442187	         -0.41714087	          0.00000000	         -0.02498529	          0.00000000	         -0.00000000	          0.00000000	         -0.00000000	          0.00000000	         -0.00000000	          0.00000000	          2.01788805	          0.00000000	          0.00000000	          0.00000000	          0.00000000	
          1.39500000	        -93.00190233	        594.98672971	         24.06835052	         -0.41661410	          0.00000000	         -0.02494422	          0.00000000	         -0.00000000	         -0.00000000	         -0.00000000	          0.00000000	         -0.00000000	          0.00000000	          2.06051401	          0.00000000	          0.00000000	          0.00000000	          0.00000000	
          1.40000000	        -92.04485123	        610.55550952	         24.46189802	         -0.41624986	          0.00000000	         -0.02463556	          0.00000000	         -0.00000000	         -0.00000000	          0.00000000	          0.00000000	          0.00000000	          0.00000000	          2.11023702	          0.00000000	          0.00000000	         -0.00000000	          0.00000000	
